HIERARCHY
ROOT Hips
{
 OFFSET 0.000000 0.000000 0.000000
 CHANNELS 6 Xposition Yposition Zposition Yrotation Xrotation Zrotation
 JOINT Chest
 {
  OFFSET 0.000000 9.585900 0.002600
  CHANNELS 3 Yrotation Xrotation Zrotation
  JOINT Chest2
  {
   OFFSET 0.000000 9.601200 -0.005300
   CHANNELS 3 Yrotation Xrotation Zrotation
   JOINT Chest3
   {
    OFFSET 0.000000 9.561800 0.000000
    CHANNELS 3 Yrotation Xrotation Zrotation
    JOINT Chest4
    {
     OFFSET 0.000000 9.552100 0.000000
     CHANNELS 3 Yrotation Xrotation Zrotation
     JOINT Neck
     {
      OFFSET 0.000000 14.453000 0.000000
      CHANNELS 3 Yrotation Xrotation Zrotation
      JOINT Head
      {
       OFFSET 0.000000 8.936500 -0.011300
       CHANNELS 3 Yrotation Xrotation Zrotation
       End Site
       {
        OFFSET 0.000000 17.073600 -0.006000
       }
      }
     }
     JOINT RightCollar
     {
      OFFSET -2.921100 9.558500 0.000000
      CHANNELS 3 Yrotation Xrotation Zrotation
      JOINT RightShoulder
      {
       OFFSET -13.519700 0.000000 0.000000
       CHANNELS 3 Yrotation Xrotation Zrotation
       JOINT RightElbow
       {
        OFFSET 0.000000 -29.696600 0.000000
        CHANNELS 3 Yrotation Xrotation Zrotation
        JOINT RightWrist
        {
         OFFSET 0.000000 -24.004700 0.000000
         CHANNELS 3 Yrotation Xrotation Zrotation
         End Site
         {
          OFFSET 0.000000 -17.728500 0.000000
         }
        }
       }
      }
     }
     JOINT LeftCollar
     {
      OFFSET 2.921100 9.558500 0.000000
      CHANNELS 3 Yrotation Xrotation Zrotation
      JOINT LeftShoulder
      {
       OFFSET 13.519700 0.000000 0.000000
       CHANNELS 3 Yrotation Xrotation Zrotation
       JOINT LeftElbow
       {
        OFFSET 0.000000 -29.696600 0.000000
        CHANNELS 3 Yrotation Xrotation Zrotation
        JOINT LeftWrist
        {
         OFFSET 0.000000 -24.004700 0.000000
         CHANNELS 3 Yrotation Xrotation Zrotation
         End Site
         {
          OFFSET 0.000000 -17.728500 0.000000
         }
        }
       }
      }
     }
    }
   }
  }
 }
 JOINT RightHip
 {
  OFFSET -7.771700 -0.012900 -0.001300
  CHANNELS 3 Yrotation Xrotation Zrotation
  JOINT RightKnee
  {
   OFFSET 0.000000 -40.869800 0.001200
   CHANNELS 3 Yrotation Xrotation Zrotation
   JOINT RightAnkle
   {
    OFFSET 0.000000 -39.717900 0.002100
    CHANNELS 3 Yrotation Xrotation Zrotation
    JOINT RightToe
    {
     OFFSET 0.000000 -4.965400 11.033500
     CHANNELS 3 Yrotation Xrotation Zrotation
     End Site
     {
      OFFSET 0.000000 -1.423100 5.872300
     }
    }
   }
  }
 }
 JOINT LeftHip
 {
  OFFSET 7.771700 -0.012900 -0.001300
  CHANNELS 3 Yrotation Xrotation Zrotation
  JOINT LeftKnee
  {
   OFFSET 0.000000 -40.869800 0.001200
   CHANNELS 3 Yrotation Xrotation Zrotation
   JOINT LeftAnkle
   {
    OFFSET 0.000000 -39.717900 0.002100
    CHANNELS 3 Yrotation Xrotation Zrotation
    JOINT LeftToe
    {
     OFFSET 0.000000 -4.965400 11.033500
     CHANNELS 3 Yrotation Xrotation Zrotation
     End Site
     {
      OFFSET 0.000000 -1.423100 5.872300
     }
    }
   }
  }
 }
}
MOTION
Frames: 11
Frame Time: 0.008333
0.000000 85.388000 0.000000 0.000000 -5.767877 0.000000 0.000000 11.653817 0.000000 0.000000 -5.885947 0.000000 0.000000 -0.000000 0.000000 0.000000 -0.000000 0.000000 0.000000 12.528835 0.000000 0.000000 0.711642 0.000000 0.000000 -0.000000 0.000000 0.000000 0.000000 -90.000000 0.000000 -2.309062 0.000000 0.000000 2.309062 0.000000 0.000000 -0.000000 0.000000 0.000000 -0.000000 90.000000 0.000000 -2.309062 0.000000 0.000000 2.309062 0.000000 0.000000 8.520406 0.000000 0.000000 1.905762 0.000000 -0.000000 -4.658285 0.000000 0.000000 -0.000000 0.000000 0.000000 8.520406 0.000000 0.000000 1.905762 0.000000 -0.000000 -4.658285 0.000000 0.000000 -0.000000 0.000000
-38.928833 57.501594 20.726834 160.592150 -5.644704 0.597304 3.443239 6.197106 0.614255 0.144401 0.267961 -0.005103 0.227130 0.474437 -0.013826 3.249299 5.965697 0.051841 0.774308 18.411399 -1.062414 1.764054 -1.581325 -2.199956 2.810971 7.823217 1.171329 -3.891309 -6.958168 -9.182020 -179.560599 -79.351756 -155.518547 -2.002697 4.976660 -32.095633 -5.438762 8.640536 -2.456354 15.114915 -7.251387 3.688342 152.225608 -75.692665 -174.736487 -2.236945 8.205347 12.556184 -1.809433 -66.835639 0.105656 -40.109548 72.277568 -42.653407 -3.810872 -6.930976 3.184923 -0.341390 0.610834 -0.119691 4.096090 -68.897368 12.675520 38.721112 65.723034 31.054918 -18.704556 -10.409826 5.170777 0.004761 -0.662275 -0.003298
-38.934969 57.499951 20.727832 160.592313 -5.626202 0.597722 3.469947 6.177436 0.620950 0.144472 0.267799 -0.005016 0.226533 0.470394 -0.013737 3.237227 5.967349 0.050183 0.774744 18.420971 -1.055078 1.751491 -1.555491 -2.180875 2.823752 7.835624 1.188695 -3.923219 -6.973811 -9.182010 -179.627599 -79.315272 -155.476932 -1.969076 4.964383 -32.076917 -5.427621 8.646405 -2.456403 15.125893 -7.254613 3.679811 152.209247 -75.694249 -174.748787 -2.231847 8.201078 12.582896 -1.799289 -66.853228 0.109825 -40.129796 72.269459 -42.712388 -3.738952 -6.993350 3.233731 -0.425355 0.672189 -0.140775 4.100653 -68.917276 12.665694 38.725258 65.718781 31.058235 -18.686843 -10.344491 5.173999 0.031918 -0.731690 0.002653
-38.940470 57.498328 20.725758 160.607858 -5.627315 0.594318 3.483674 6.178539 0.631995 0.129286 0.267381 -0.008199 0.239274 0.469326 -0.011301 3.226255 5.966217 0.049252 0.764014 18.425626 -1.054260 1.754521 -1.536738 -2.166081 2.835025 7.845712 1.203864 -3.951356 -6.985012 -9.189957 -179.654611 -79.296221 -155.465516 -1.970378 4.976578 -32.062797 -5.434946 8.649017 -2.458701 15.152526 -7.254853 3.666161 152.230778 -75.696342 -174.762794 -2.225912 8.196266 12.580042 -1.815194 -66.852432 0.115602 -40.147475 72.265982 -42.743527 -3.740918 -6.996416 3.240965 -0.425028 0.672208 -0.144938 4.082286 -68.918917 12.664497 38.704042 65.721877 31.044532 -18.678412 -10.342797 5.169966 0.023213 -0.736409 0.005690
-38.951620 57.496525 20.721282 160.618920 -5.631890 0.624748 3.500283 6.184145 0.611096 0.112694 0.268424 -0.012241 0.253561 0.470169 -0.008085 3.225594 5.967755 0.052744 0.760408 18.433782 -1.047066 1.732909 -1.540552 -2.166938 2.832292 7.854349 1.212653 -3.985977 -7.005484 -9.180346 -179.791929 -79.244825 -155.385208 -1.964455 4.999500 -32.011093 -5.430796 8.647879 -2.466893 15.155767 -7.255696 3.661015 152.247468 -75.695721 -174.744389 -2.226371 8.192326 12.555102 -1.749112 -66.849999 0.043269 -40.170801 72.258061 -42.822395 -3.690698 -7.002224 3.299833 -0.483193 0.673935 -0.180581 4.156964 -68.915001 12.571155 38.705746 65.722565 31.049259 -18.702967 -10.327560 5.169223 0.042884 -0.750706 0.011356
-38.958915 57.494294 20.719068 160.645685 -5.632781 0.625667 3.503334 6.181575 0.618161 0.114897 0.272274 -0.012555 0.253290 0.470299 -0.007969 3.246411 5.966937 0.060567 0.753816 18.442489 -1.040558 1.720571 -1.531896 -2.154970 2.790910 7.862137 1.210672 -4.009066 -7.021786 -9.163089 -179.971457 -79.191680 -155.276432 -1.958511 5.019403 -31.951285 -5.457258 8.650789 -2.471938 15.167243 -7.253879 3.643321 152.285035 -75.690832 -174.767235 -2.228680 8.196068 12.554486 -1.764484 -66.851863 0.041911 -40.207360 72.251752 -42.874668 -3.706267 -7.004172 3.289315 -0.467408 0.675996 -0.158550 4.147068 -68.918078 12.551748 38.727357 65.715708 31.068835 -18.715120 -10.315927 5.171743 0.042273 -0.758942 0.013432
-38.965250 57.491709 20.718123 160.696503 -5.629827 0.615528 3.482392 6.173646 0.632084 0.115991 0.271959 -0.009864 0.280451 0.466238 -0.003109 3.199973 5.974131 0.051504 0.757734 18.444898 -1.038059 1.746270 -1.523657 -2.149970 2.816615 7.889420 1.222164 -4.085611 -7.063392 -9.117606 179.704972 -79.147557 -154.987393 -1.908709 5.021993 -31.916071 -5.440573 8.657360 -2.476202 15.170935 -7.255520 3.637201 152.299760 -75.686361 -174.765903 -2.232870 8.197182 12.533617 -1.821500 -66.858930 0.075056 -40.283042 72.237271 -42.970125 -3.746370 -6.995874 3.278085 -0.424720 0.669391 -0.129436 4.094286 -68.924283 12.551174 38.733218 65.702767 31.074251 -18.720364 -10.306093 5.173467 0.041554 -0.758143 0.014612
-38.973304 57.488738 20.718307 160.736612 -5.617826 0.613481 3.456990 6.159592 0.633382 0.128177 0.268855 -0.006869 0.283855 0.469398 -0.003244 3.180625 5.973948 0.049523 0.802568 18.452434 -1.031539 1.732081 -1.515309 -2.140114 2.849464 7.918050 1.232766 -4.142967 -7.096831 -9.101135 179.466414 -79.093238 -154.821612 -1.872199 5.047889 -31.862266 -5.422576 8.664834 -2.481790 15.183581 -7.255288 3.627652 152.318757 -75.682708 -174.803024 -2.233737 8.198304 12.536413 -1.861475 -66.874958 0.087625 -40.317176 72.231183 -43.035731 -3.747723 -6.992373 3.300079 -0.427908 0.660600 -0.149386 4.067108 -68.937865 12.534461 38.745577 65.683606 31.081776 -18.722596 -10.286796 5.168518 0.056041 -0.756078 0.023406
-38.981911 57.485836 20.715890 160.752627 -5.619742 0.621501 3.455785 6.160892 0.627643 0.143745 0.267748 -0.004902 0.284475 0.473345 -0.001183 3.176541 5.967914 0.043756 0.784028 18.457917 -1.027808 1.805311 -1.477208 -2.139701 2.862182 7.939829 1.245062 -4.186752 -7.117410 -9.096566 179.253135 -79.035288 -154.702788 -1.846804 5.086203 -31.798682 -5.395328 8.671997 -2.481202 15.203254 -7.240263 3.610435 152.354847 -75.671434 -174.889464 -2.227517 8.191187 12.571499 -1.860349 -66.876564 0.076307 -40.332272 72.229277 -43.080546 -3.747837 -6.994876 3.320369 -0.431147 0.662649 -0.154383 4.080979 -68.937671 12.500979 38.754326 65.678049 31.091265 -18.735981 -10.274334 5.157865 0.065347 -0.757731 0.033927
-38.994350 57.482739 20.713614 160.789856 -5.613708 0.647960 3.449163 6.160060 0.608514 0.167306 0.270467 -0.001261 0.251344 0.469186 -0.008124 3.209179 5.967662 0.051747 0.761523 18.464894 -1.028056 1.782404 -1.479742 -2.135215 2.841999 7.953488 1.247653 -4.239848 -7.139810 -9.068499 178.910645 -78.979511 -154.450976 -1.816567 5.131736 -31.724741 -5.426336 8.673494 -2.488841 15.187545 -7.241811 3.610049 152.345004 -75.672000 -174.781809 -2.222719 8.195570 12.566808 -1.829756 -66.885293 0.008910 -40.377730 72.219285 -43.175306 -3.687057 -7.009780 3.357159 -0.486246 0.675516 -0.152343 4.135411 -68.942641 12.397876 38.752828 65.663019 31.090145 -18.745196 -10.254132 5.152879 0.062587 -0.758261 0.036621
-39.003884 57.479624 20.712133 160.813614 -5.608699 0.656726 3.456731 6.159422 0.605385 0.165508 0.268902 -0.000744 0.251025 0.469028 -0.007982 3.199595 5.966826 0.051113 0.774845 18.471944 -1.022250 1.788688 -1.466481 -2.127176 2.852841 7.967291 1.252060 -4.288858 -7.162288 -9.040974 178.562365 -78.922938 -154.200531 -1.780387 5.188592 -31.641869 -5.433949 8.674676 -2.491949 15.221028 -7.233526 3.595462 152.329586 -75.671499 -174.758933 -2.220636 8.197690 12.584378 -1.838326 -66.894162 -0.000898 -40.399157 72.212704 -43.228971 -3.679664 -7.010366 3.368707 -0.490841 0.676492 -0.152188 4.151503 -68.949631 12.353975 38.755449 65.657597 31.095203 -18.761087 -10.246270 5.143098 0.059680 -0.755325 0.042962
